# xmcd
#
# Track frame offsets: 
#        150
#        23244
#        43465
#        64092
#        81560
#        103225
#        120812
#        139240
#        159297
#        182620
#        207460
#        224400
#        243702
#        258850
#        277667
#        296775
#
# Disc length: 4227 seconds
#
# Revision: 3
# Processed by: cddbd v1.5.2PL0 Copyright (c) Steve Scherf et al.
# Submitted via: ExactAudioCopy v0.99pb5
#
DISCID=f4108110
DTITLE=Bob Carlisle - Collection
DYEAR=1997
DGENRE=Rock
TTITLE0=Walkin' Up The Steps Of Faith
TTITLE1=Real Love
TTITLE2=Mind, Body, Heart And Soul
TTITLE3=Giving You The Rest Of My Life
TTITLE4=Use Me
TTITLE5=Bridge Between Two Hearts
TTITLE6=Every Step I Take
TTITLE7=When A Grown Man Cries
TTITLE8=Getting Stronger
TTITLE9=Man Of No Reputation
TTITLE10=One Step Closer To Your Broken Heart
TTITLE11=We Are The People
TTITLE12=Love Take Hold
TTITLE13=The Rest Of All Time
TTITLE14=Take Me As I Am
TTITLE15=Somewhere On The Other Side
EXTD=
EXTT0=
EXTT1=
EXTT2=
EXTT3=
EXTT4=
EXTT5=
EXTT6=
EXTT7=
EXTT8=
EXTT9=
EXTT10=
EXTT11=
EXTT12=
EXTT13=
EXTT14=
EXTT15=
PLAYORDER=
